<?xml version="1.0" encoding="UTF-8" standalone="no"?>
<!-- Created with Inkscape (http://www.inkscape.org/) -->

<svg
   width="210mm"
   height="297mm"
   viewBox="0 0 210 297"
   version="1.1"
   id="svg1"
   xml:space="preserve"
   inkscape:version="1.3.2 (091e20e, 2023-11-25, custom)"
   sodipodi:docname="mse_142_figures.svg"
   xmlns:inkscape="http://www.inkscape.org/namespaces/inkscape"
   xmlns:sodipodi="http://sodipodi.sourceforge.net/DTD/sodipodi-0.dtd"
   xmlns="http://www.w3.org/2000/svg"
   xmlns:svg="http://www.w3.org/2000/svg"
   xmlns:ns1="http://www.iki.fi/pav/software/textext/"><sodipodi:namedview
     id="namedview1"
     pagecolor="#ffffff"
     bordercolor="#cccccc"
     borderopacity="1"
     inkscape:showpageshadow="0"
     inkscape:pageopacity="1"
     inkscape:pagecheckerboard="0"
     inkscape:deskcolor="#d1d1d1"
     inkscape:document-units="mm"
     inkscape:zoom="1.3131173"
     inkscape:cx="256.6412"
     inkscape:cy="286.72229"
     inkscape:window-width="2400"
     inkscape:window-height="1261"
     inkscape:window-x="2391"
     inkscape:window-y="-9"
     inkscape:window-maximized="1"
     inkscape:current-layer="layer1" /><defs
     id="defs1" /><g
     inkscape:label="Layer 1"
     inkscape:groupmode="layer"
     id="layer1"><path
       style="fill:#000000"
       d="m 26.837879,75.374372 -0.0066,-1.389063 -1.07516,1.139365 c -0.591337,0.626651 -1.264397,1.102901 -1.495686,1.058334 -0.294922,-0.05683 0.02819,-0.509281 1.081775,-1.514815 l 1.502303,-1.433784 v -2.266783 -2.266784 l -3.761398,3.775092 c -2.068769,2.0763 -3.923215,3.741555 -4.120992,3.700566 -0.197777,-0.04099 1.494852,-1.919601 3.761397,-4.174696 l 4.120993,-4.100172 v -2.244505 -2.244505 l -6.411325,6.418413 c -3.526229,3.530127 -6.569278,6.385232 -6.762332,6.344677 -0.193054,-0.04055 2.691682,-3.10983 6.410525,-6.820611 l 6.761531,-6.746875 8e-4,-2.243118 8.01e-4,-2.243118 -9.058696,9.063433 c -4.982283,4.984888 -9.2151351,9.030385 -9.4063381,8.989993 -0.191204,-0.04039 3.8846551,-4.300159 9.0574641,-9.466149 l 9.405108,-9.392708 0.0012,-2.241303 0.0012,-2.241303 -9.532504,9.517345 c -5.242876,5.234539 -9.5886571,9.566954 -9.6572911,9.627588 -0.06863,0.06063 -0.124789,-0.06304 -0.124789,-0.274828 0,-0.211788 4.3451441,-4.726242 9.6558751,-10.032118 l 9.655875,-9.647048 0.0014,-2.241303 0.0014,-2.241302 -9.532504,9.517344 c -5.242876,5.23454 -9.5886571,9.566954 -9.6572911,9.627588 -0.06863,0.06063 -0.124789,-0.06304 -0.124789,-0.274827 0,-0.211789 4.3451441,-4.726242 9.6558751,-10.032119 l 9.655875,-9.647048 0.0014,-2.241302 0.0014,-2.241303 -9.532504,9.517344 c -5.242876,5.23454 -9.5886571,9.566954 -9.6572911,9.627588 -0.06863,0.06063 -0.124789,-0.06304 -0.124789,-0.274827 0,-0.211789 4.3451441,-4.726242 9.6558751,-10.032118 l 9.655875,-9.647048 0.0014,-2.241303 0.0014,-2.241303 -9.532504,9.517345 c -5.242876,5.234539 -9.5886571,9.566954 -9.6572911,9.627587 -0.06863,0.06063 -0.124789,-0.06304 -0.124789,-0.274827 0,-0.211789 4.3451441,-4.726242 9.6558751,-10.032118 l 9.655875,-9.647048 0.0014,-2.241303 0.0014,-2.241303 -9.532504,9.517345 C 6.2405089,52.238326 7.4487939,51.084126 7.5671819,50.493076 7.6193419,50.23266 11.983429,45.699887 17.265151,40.420247 l 9.60313,-9.599346 -0.07813,-2.098004 -0.07813,-2.098005 -9.477401,9.392708 c -5.21257,5.16599 -9.5285861,9.442318 -9.5911461,9.502952 -0.06256,0.06063 -0.113745,-0.06407 -0.113745,-0.277124 0,-0.347944 14.9692431,-15.452342 18.0578131,-18.220853 l 1.256771,-1.126536 v -2.266836 -2.266836 l -3.766289,3.689596 c -2.071459,2.029277 -6.361683,6.249439 -9.533831,9.378137 -3.172148,3.128698 -5.8230991,5.738151 -5.8910031,5.798785 -0.0679,0.06063 -0.123461,-0.06519 -0.123461,-0.279598 0,-0.351839 3.9697191,-4.364836 15.4119791,-15.580003 l 3.902605,-3.82515 V 18.304723 16.065312 L 20.56064,22.280836 C 15.447651,27.338227 8.2140159,34.430597 7.6521709,34.937218 c -0.06724,0.06063 -0.12226,-0.06785 -0.12226,-0.285526 0,-0.217672 1.457668,-1.815094 3.2392631,-3.549826 1.781594,-1.734732 6.127122,-6.011558 9.656728,-9.504058 l 6.417465,-6.35 5.64e-4,-2.238448 5.64e-4,-2.238449 -8.929688,8.906489 c -4.911328,4.898568 -9.2571091,9.158965 -9.6572921,9.467548 -2.183268,1.683529 0.261263,-0.933672 8.9296881,-9.56044 L 26.844495,9.9736236 V 7.7235796 5.4735356 L 17.311991,14.99088 C 6.2410269,26.04424 7.4489689,24.890326 7.5673639,24.299654 7.6195239,24.03942 11.885577,19.604341 17.047478,14.443925 25.560267,5.9335836 26.513244,5.0613496 27.298596,5.0613496 h 0.865843 l 0.07061,22.5557294 c 0.04409,14.082805 0.161852,22.307257 0.313498,21.894271 0.133586,-0.363802 0.777328,-1.73302 1.430537,-3.042708 1.626381,-3.260902 4.037011,-5.715691 6.242487,-6.35684 1.808049,-0.525614 3.081779,-0.390636 4.871381,0.516224 1.223816,0.620154 3.378388,2.680194 3.981162,3.806487 0.170406,0.318406 0.394937,0.576303 0.498957,0.573104 0.104021,-0.0032 0.546316,-0.54755 0.982879,-1.209669 1.723059,-2.613301 4.941147,-4.335199 7.351938,-3.933792 2.174143,0.362005 4.28177,1.832012 5.80879,4.05146 l 0.826551,1.201351 0.546986,-0.765378 c 2.612922,-3.656176 5.711034,-5.182907 8.675164,-4.275071 1.660509,0.508572 3.566479,1.962548 4.704113,3.588551 0.509322,0.727968 1.005627,1.329155 1.102899,1.335971 0.09727,0.0068 0.41747,-0.374559 0.71155,-0.847502 1.325063,-2.13098 3.93425,-4.004917 6.009594,-4.316134 2.011453,-0.301636 3.893756,0.462654 5.782206,2.347803 0.90226,0.900681 1.83847,1.935258 2.08049,2.29906 0.38996,0.586206 0.47055,0.611985 0.7084,0.226596 0.67306,-1.090533 2.29326,-2.814109 3.36254,-3.577067 3.57317,-2.549551 7.541209,-1.369428 10.819519,3.217793 l 0.54698,0.765378 0.82655,-1.201351 c 1.52702,-2.219448 3.63465,-3.689455 5.80879,-4.05146 2.42307,-0.40345 5.47138,1.194502 7.23405,3.792148 0.5014,0.738917 0.99675,1.346555 1.10077,1.350307 0.10402,0.0038 0.32855,-0.253692 0.49896,-0.572098 1.09355,-2.04333 4.10841,-4.256957 6.26812,-4.602309 4.4649,-0.713967 9.30053,4.871357 11.07151,12.788001 l 0.48831,2.182812 h 6.68313 6.68313 V 44.747208 34.691398 l 20.30677,0.06779 20.30678,0.06779 0.0678,20.306771 0.0678,20.306772 h 4.76086 4.76086 v 0.661458 0.661458 H 114.68616 26.844495 Z M 152.25699,65.386351 V 55.332184 h -6.9664 -6.9664 l -0.46036,-2.142317 c -1.3211,-6.147826 -4.6551,-11.31769 -8.01346,-12.426048 -1.6016,-0.528575 -3.61888,-0.196767 -5.10622,0.839885 -1.53302,1.068481 -3.79911,3.862537 -3.61356,4.45546 0.0705,0.225213 0.47818,1.244225 0.906,2.264471 1.3422,3.200759 1.9741,6.434277 2.11552,10.825363 0.14112,4.382054 -0.16916,6.854294 -1.13521,9.045113 -1.41319,3.204858 -3.82027,2.887649 -5.1767,-0.682196 -1.78019,-4.685088 -1.00342,-14.453406 1.59249,-20.026321 l 0.75874,-1.628882 -0.87259,-1.29572 c -3.67533,-5.457562 -8.9208,-5.303061 -12.80517,0.377166 -0.54054,0.790448 -0.55353,0.905412 -0.18322,1.621518 3.50635,6.780525 3.99256,19.149732 0.90021,22.901287 -1.26267,1.531834 -2.86059,1.182776 -3.8955,-0.850951 -2.32515,-4.569241 -1.81355,-14.736772 1.05463,-20.959355 l 0.83308,-1.807408 -0.60113,-0.877929 c -1.08431,-1.583603 -2.74569,-3.160071 -4.01585,-3.810619 -2.920089,-1.495604 -6.319609,-0.224558 -8.716319,3.258941 -0.90805,1.319801 -0.9003,1.454319 0.24027,4.171667 3.52108,8.388765 2.53795,21.828125 -1.59679,21.828125 -3.49701,0 -4.83688,-10.823973 -2.39091,-19.314584 0.35633,-1.236927 0.95418,-2.933173 1.32856,-3.769436 l 0.68069,-1.520478 -0.72602,-1.097094 c -2.70917,-4.093824 -6.437707,-5.294687 -9.676783,-3.116634 -1.529682,1.028604 -3.793734,3.835973 -3.597104,4.460319 0.07156,0.227213 0.447206,1.171402 0.834773,2.098197 0.387566,0.926794 1.012673,2.831794 1.389126,4.233333 0.617745,2.299869 0.686403,3.03825 0.70439,7.575335 0.01787,4.506317 -0.0416,5.222754 -0.574074,6.91593 -0.706271,2.245845 -1.764584,3.535112 -2.901843,3.535112 -4.134624,0 -5.11491,-13.418363 -1.594665,-21.828125 1.138242,-2.719227 1.145843,-2.852378 0.238148,-4.171667 -3.64676,-5.300385 -8.874945,-5.092181 -12.699462,0.505733 l -0.568415,0.831984 0.644956,1.416975 c 0.798274,1.753814 1.897306,5.520428 2.293422,7.860035 0.1638,0.967463 0.303558,3.425898 0.310573,5.46319 0.01576,4.576681 -0.658542,7.525859 -2.06062,9.012494 -1.823583,1.933562 -3.574992,0.745022 -4.660729,-3.162859 -0.483176,-1.739089 -0.59599,-2.822028 -0.5956,-5.717343 2.64e-4,-1.964532 0.143877,-4.464844 0.319138,-5.55625 0.367157,-2.286392 1.711883,-6.809696 2.46095,-8.277989 l 0.511749,-1.003111 -0.580927,-0.849554 c -1.876905,-2.744813 -4.36947,-4.414064 -6.598326,-4.418845 -1.628174,-0.0035 -3.658734,1.045442 -5.073162,2.620664 -1.701247,1.894648 -1.972229,2.514903 -1.547843,3.542884 2.478706,6.004117 3.398485,11.898217 2.687022,17.21889 -0.708694,5.299963 -2.895665,7.895186 -4.934823,5.856028 -1.672726,-1.672726 -2.369973,-5.207423 -2.153432,-10.916845 0.183418,-4.836103 0.758315,-7.47175 2.510669,-11.510309 l 0.659744,-1.520478 -0.65927,-0.993064 C 44.150355,44.269687 43.353802,43.324237 42.742836,42.714871 38.001352,37.985804 32.176282,41.126205 29.154639,50.040517 l -0.852004,2.513542 -0.08064,11.443229 -0.08064,11.44323 H 90.199171 152.25699 Z M 192.20908,55.199892 V 35.488434 h -19.71146 -19.71146 v 19.535069 c 0,10.744289 0.0794,19.614445 0.17639,19.711459 0.097,0.09701 8.96717,0.176389 19.71146,0.176389 h 19.53507 z M 62.084079,68.534951 c 1.309138,-1.789591 1.902826,-8.374632 1.180146,-13.089892 -0.431428,-2.814934 -1.746756,-7.309286 -2.396628,-8.189052 -0.368457,-0.4988 -0.410444,-0.468164 -0.91529,0.667843 -2.338289,5.261627 -3.117205,14.186484 -1.639495,18.785417 1.046572,3.257145 2.285399,3.856866 3.771267,1.825684 z m 44.859851,0.313911 c 1.31282,-1.682493 2.0468,-8.320639 1.4096,-12.748479 -0.57455,-3.992424 -2.11068,-8.97475 -2.79549,-9.066951 -0.37196,-0.05008 -1.85213,4.049158 -2.37556,6.57896 -1.28434,6.207227 -0.55235,13.885355 1.48735,15.601656 0.67312,0.566392 0.88212,0.62152 1.3704,0.361468 0.31687,-0.168768 0.72354,-0.495762 0.9037,-0.726654 z M 47.158782,68.379203 c 1.088984,-1.980077 1.446087,-4.503255 1.303563,-9.210561 -0.139627,-4.611594 -0.801331,-7.933662 -2.177966,-10.934419 -0.783346,-1.707519 -0.776692,-1.711459 -1.887395,1.117524 -2.040915,5.198253 -2.463777,13.792427 -0.883294,17.95192 0.682088,1.79511 1.239421,2.360194 2.231671,2.26271 0.634356,-0.06232 0.932517,-0.312757 1.413421,-1.187174 z m 29.532802,0.741004 c 1.789691,-1.977586 2.451304,-8.529188 1.45918,-14.449481 C 77.840128,52.81707 76.4835,48.351694 75.940226,47.394684 l -0.375495,-0.661459 -0.689986,1.500998 c -0.379492,0.825548 -1.003056,2.671017 -1.385698,4.101042 -0.629993,2.354439 -0.697772,3.074912 -0.717528,7.627127 -0.02314,5.332401 0.222769,6.851693 1.423932,8.797396 0.6215,1.006736 1.76217,1.171439 2.496133,0.360419 z m 15.232227,-0.282779 c 0.30636,-0.43024 0.80531,-1.764144 1.10879,-2.96423 0.78673,-3.111118 0.59821,-9.744879 -0.38227,-13.451431 -0.78643,-2.972936 -1.72917,-5.55625 -2.02768,-5.55625 -0.33593,0 -1.27946,2.39455 -1.9906,5.051863 -2.10327,7.859223 -1.00331,17.702304 1.97821,17.702304 0.53613,0 0.91881,-0.227895 1.31355,-0.782256 z m 29.746939,0.282779 c 1.49863,-1.655972 2.26108,-6.618561 1.7875,-11.634425 -0.3405,-3.606378 -0.75843,-5.542929 -1.77808,-8.239015 -1.01851,-2.693076 -1.05141,-2.711166 -1.83162,-1.006973 -0.37654,0.822485 -0.99854,2.665446 -1.38222,4.095471 -0.63295,2.359072 -0.69945,3.065954 -0.71753,7.627127 -0.0211,5.331588 0.22543,6.852956 1.42582,8.797396 0.6215,1.006736 1.76217,1.171439 2.49613,0.360419 z M 7.5299109,19.052916 c 0,-0.498671 13.3252181,-13.8281474 13.9496571,-13.9541144 0.258574,-0.05216 0.410604,-0.02683 0.337843,0.05629 C 21.560536,5.4485406 8.7122139,18.328298 8.1252239,18.880779 c -0.445016,0.418853 -0.595313,0.462313 -0.595313,0.172139 z m 0,-5.294954 c 0,-0.499214 8.0336831,-8.5324334 8.6596601,-8.6591604 0.257656,-0.05216 0.408934,-0.02768 0.336174,0.0544 -0.312942,0.353021 -7.7541741,7.8297484 -8.3449211,8.3847264 -0.475442,0.446654 -0.650913,0.505971 -0.650913,0.220038 z m 0,-5.3293364 c 0,-0.483788 2.9188321,-3.367276 3.4085491,-3.367276 0.373645,0 -1.3235931,1.980876 -2.6809451,3.128978 -0.518383,0.438469 -0.727604,0.506991 -0.727604,0.238298 z"
       id="path1"
       sodipodi:nodetypes="ccssscccssscccssscccssscccsssscccsssscccsssscccsssscccssscccsssscccsssssccccsssscccssscccsssscsssssssssscssssssssssscsssccssccccccccccccccccccccssssssssscsssssscssssssscssssssssssscsssssssscsssssssscsssccccccccccsssccssssssssscssssssssssssscssssssssssssssssscssssssssssssssssss"
       inkscape:export-filename="mass-spring.pdf"
       inkscape:export-xdpi="300"
       inkscape:export-ydpi="300" /><g
       transform="matrix(1.9940963,0,0,1.9940963,164.7386,50.582639)"
       ns1:version="1.10.2"
       ns1:texconverter="pdflatex"
       ns1:pdfconverter="inkscape"
       ns1:text="$m$"
       ns1:preamble="C:\Users\enzec\AppData\Roaming\inkscape\extensions\textext\default_packages.tex"
       ns1:scale="1.4489429774997153"
       ns1:alignment="middle center"
       ns1:stroke-to-path="0"
       id="g8067"
       ns1:jacobian_sqrt="0.511155"
       style="stroke-width:0.256334"><defs
   id="id-d1d32cf9-9050-4765-8c58-1005675bfba9">
    <g
   id="id-1fb69d0c-e395-4004-9727-7b2afad18348">
      <g
   id="id-f6df60fd-2485-4625-a346-a3949d28fa0a">
        <path
   d="m 0.875,-0.59375 c -0.03125,0.15625 -0.09375,0.390625 -0.09375,0.4375 0,0.171875 0.140625,0.265625 0.296875,0.265625 0.125,0 0.296875,-0.078125 0.375,-0.28125 0,-0.015625 0.125,-0.484375 0.1875,-0.734375 l 0.21875,-0.890625 C 1.90625,-2.03125 1.96875,-2.25 2.03125,-2.46875 c 0.03125,-0.171875 0.109375,-0.46875 0.125,-0.5 0.140625,-0.3125 0.671875,-1.21875 1.625,-1.21875 0.453125,0 0.53125,0.375 0.53125,0.703125 0,0.25 -0.0625,0.53125 -0.140625,0.828125 L 3.890625,-1.5 3.6875,-0.75 c -0.03125,0.203125 -0.125,0.546875 -0.125,0.59375 0,0.171875 0.140625,0.265625 0.28125,0.265625 0.3125,0 0.375,-0.25 0.453125,-0.5625 0.140625,-0.5625 0.515625,-2.015625 0.59375,-2.40625 0.03125,-0.125 0.5625,-1.328125 1.65625,-1.328125 0.421875,0 0.53125,0.34375 0.53125,0.703125 0,0.5625 -0.421875,1.703125 -0.625,2.234375 -0.078125,0.234375 -0.125,0.34375 -0.125,0.546875 0,0.46875 0.34375,0.8125 0.8125,0.8125 0.9375,0 1.3125,-1.453125 1.3125,-1.53125 0,-0.109375 -0.09375,-0.109375 -0.125,-0.109375 -0.09375,0 -0.09375,0.03125 -0.140625,0.1875 -0.15625,0.53125 -0.46875,1.234375 -1.015625,1.234375 -0.171875,0 -0.25,-0.09375 -0.25,-0.328125 0,-0.25 0.09375,-0.484375 0.1875,-0.703125 0.1875,-0.53125 0.609375,-1.625 0.609375,-2.203125 0,-0.640625 -0.40625,-1.0625 -1.15625,-1.0625 -0.734375,0 -1.25,0.4375 -1.625,0.96875 0,-0.125 -0.03125,-0.46875 -0.3125,-0.703125 -0.25,-0.21875 -0.5625,-0.265625 -0.8125,-0.265625 -0.90625,0 -1.390625,0.640625 -1.5625,0.875 -0.046875,-0.578125 -0.46875,-0.875 -0.921875,-0.875 -0.453125,0 -0.640625,0.390625 -0.734375,0.5625 -0.171875,0.359375 -0.296875,0.9375 -0.296875,0.96875 0,0.109375 0.09375,0.109375 0.109375,0.109375 0.109375,0 0.109375,-0.015625 0.171875,-0.234375 0.171875,-0.703125 0.375,-1.1875 0.734375,-1.1875 0.15625,0 0.296875,0.078125 0.296875,0.453125 0,0.21875 -0.03125,0.328125 -0.15625,0.84375 z m 0,0"
   id="id-722b59e8-0dde-4954-83d1-0e4cfbab0b44" />
      </g>
    </g>
  </defs>
  <g
   fill="#000000"
   fill-opacity="1"
   id="id-836bd15c-d7ad-4b0f-ab39-151fd5bf24c6"
   transform="translate(-149.009,-130.359)"
   style="stroke-width:0.256334">
    <g
   transform="translate(148.712,134.765)"
   id="g5157"
   style="stroke-width:0.256334"><path
   d="m 0.875,-0.59375 c -0.03125,0.15625 -0.09375,0.390625 -0.09375,0.4375 0,0.171875 0.140625,0.265625 0.296875,0.265625 0.125,0 0.296875,-0.078125 0.375,-0.28125 0,-0.015625 0.125,-0.484375 0.1875,-0.734375 l 0.21875,-0.890625 C 1.90625,-2.03125 1.96875,-2.25 2.03125,-2.46875 c 0.03125,-0.171875 0.109375,-0.46875 0.125,-0.5 0.140625,-0.3125 0.671875,-1.21875 1.625,-1.21875 0.453125,0 0.53125,0.375 0.53125,0.703125 0,0.25 -0.0625,0.53125 -0.140625,0.828125 L 3.890625,-1.5 3.6875,-0.75 c -0.03125,0.203125 -0.125,0.546875 -0.125,0.59375 0,0.171875 0.140625,0.265625 0.28125,0.265625 0.3125,0 0.375,-0.25 0.453125,-0.5625 0.140625,-0.5625 0.515625,-2.015625 0.59375,-2.40625 0.03125,-0.125 0.5625,-1.328125 1.65625,-1.328125 0.421875,0 0.53125,0.34375 0.53125,0.703125 0,0.5625 -0.421875,1.703125 -0.625,2.234375 -0.078125,0.234375 -0.125,0.34375 -0.125,0.546875 0,0.46875 0.34375,0.8125 0.8125,0.8125 0.9375,0 1.3125,-1.453125 1.3125,-1.53125 0,-0.109375 -0.09375,-0.109375 -0.125,-0.109375 -0.09375,0 -0.09375,0.03125 -0.140625,0.1875 -0.15625,0.53125 -0.46875,1.234375 -1.015625,1.234375 -0.171875,0 -0.25,-0.09375 -0.25,-0.328125 0,-0.25 0.09375,-0.484375 0.1875,-0.703125 0.1875,-0.53125 0.609375,-1.625 0.609375,-2.203125 0,-0.640625 -0.40625,-1.0625 -1.15625,-1.0625 -0.734375,0 -1.25,0.4375 -1.625,0.96875 0,-0.125 -0.03125,-0.46875 -0.3125,-0.703125 -0.25,-0.21875 -0.5625,-0.265625 -0.8125,-0.265625 -0.90625,0 -1.390625,0.640625 -1.5625,0.875 -0.046875,-0.578125 -0.46875,-0.875 -0.921875,-0.875 -0.453125,0 -0.640625,0.390625 -0.734375,0.5625 -0.171875,0.359375 -0.296875,0.9375 -0.296875,0.96875 0,0.109375 0.09375,0.109375 0.109375,0.109375 0.109375,0 0.109375,-0.015625 0.171875,-0.234375 0.171875,-0.703125 0.375,-1.1875 0.734375,-1.1875 0.15625,0 0.296875,0.078125 0.296875,0.453125 0,0.21875 -0.03125,0.328125 -0.15625,0.84375 z m 0,0"
   id="id-90807f91-90d7-4fb7-87a6-c50052084c92"
   style="stroke-width:0.256334" />
      </g></g>
</g></g></svg>
